<svg width="50" height="50" viewBox="0 0 50 50" fill="none" xmlns="http://www.w3.org/2000/svg">
<rect width="50" height="50" rx="8" fill="#2F2F2F"/>
<path d="M25 7C20.1152 7 19.501 7.0225 17.5818 7.108C15.6625 7.198 14.3552 7.4995 13.21 7.945C12.0081 8.39573 10.9198 9.10465 10.0218 10.0218C9.10465 10.9198 8.39573 12.0081 7.945 13.21C7.4995 14.353 7.19575 15.6625 7.108 17.575C7.0225 19.4987 7 20.1108 7 25.0023C7 29.8893 7.0225 30.5013 7.108 32.4205C7.198 34.3375 7.4995 35.6447 7.945 36.79C8.40625 37.9735 9.0205 38.977 10.0218 39.9782C11.0208 40.9795 12.0243 41.596 13.2078 42.055C14.3553 42.5005 15.6603 42.8042 17.5773 42.892C19.4988 42.9775 20.1107 43 25 43C29.8893 43 30.499 42.9775 32.4205 42.892C34.3353 42.802 35.647 42.5005 36.7923 42.055C37.9933 41.604 39.0808 40.8951 39.9782 39.9782C40.9795 38.977 41.5937 37.9735 42.055 36.79C42.4982 35.6447 42.802 34.3375 42.892 32.4205C42.9775 30.5013 43 29.8893 43 25C43 20.1107 42.9775 19.4988 42.892 17.5773C42.802 15.6625 42.4982 14.353 42.055 13.21C41.6043 12.0081 40.8954 10.9198 39.9782 10.0218C39.0802 9.10465 37.9918 8.39573 36.79 7.945C35.6425 7.4995 34.333 7.19575 32.4182 7.108C30.4967 7.0225 29.887 7 24.9955 7H25ZM23.3867 10.2445H25.0023C29.8083 10.2445 30.3775 10.2603 32.2742 10.348C34.0292 10.4268 34.9832 10.7215 35.6177 10.9668C36.457 11.293 37.0577 11.6845 37.6877 12.3145C38.3177 12.9445 38.707 13.543 39.0333 14.3845C39.2808 15.0168 39.5733 15.9708 39.652 17.7258C39.7398 19.6225 39.7578 20.1918 39.7578 24.9955C39.7578 29.7993 39.7398 30.3707 39.652 32.2675C39.5733 34.0225 39.2785 34.9743 39.0333 35.6088C38.7426 36.3893 38.2823 37.0955 37.6855 37.6765C37.0555 38.3065 36.457 38.6958 35.6155 39.022C34.9855 39.2695 34.0315 39.562 32.2742 39.643C30.3775 39.7285 29.8083 39.7488 25.0023 39.7488C20.1963 39.7488 19.6248 39.7285 17.728 39.643C15.973 39.562 15.0212 39.2695 14.3867 39.022C13.6056 38.7323 12.8986 38.2728 12.3167 37.6765C11.7189 37.0951 11.2577 36.388 10.9668 35.6065C10.7215 34.9742 10.4268 34.0203 10.348 32.2653C10.2625 30.3685 10.2445 29.7992 10.2445 24.991C10.2445 20.1827 10.2625 19.618 10.348 17.7212C10.429 15.9662 10.7215 15.0123 10.969 14.3778C11.2953 13.5385 11.6867 12.9377 12.3167 12.3077C12.9467 11.6777 13.5452 11.2885 14.3867 10.9623C15.0212 10.7148 15.973 10.4223 17.728 10.3413C19.3885 10.2648 20.032 10.2423 23.3867 10.24V10.2445ZM34.6097 13.2325C34.3261 13.2325 34.0452 13.2884 33.7832 13.3969C33.5211 13.5055 33.283 13.6646 33.0824 13.8651C32.8818 14.0657 32.7227 14.3038 32.6142 14.5659C32.5056 14.828 32.4497 15.1088 32.4497 15.3925C32.4497 15.6762 32.5056 15.957 32.6142 16.2191C32.7227 16.4812 32.8818 16.7193 33.0824 16.9199C33.283 17.1204 33.5211 17.2795 33.7832 17.3881C34.0452 17.4966 34.3261 17.5525 34.6097 17.5525C35.1826 17.5525 35.732 17.3249 36.1371 16.9199C36.5422 16.5148 36.7697 15.9654 36.7697 15.3925C36.7697 14.8196 36.5422 14.2702 36.1371 13.8651C35.732 13.4601 35.1826 13.2325 34.6097 13.2325ZM25.0023 15.757C23.7762 15.7379 22.5585 15.9628 21.4202 16.4188C20.2819 16.8748 19.2457 17.5527 18.3718 18.413C17.498 19.2732 16.8041 20.2988 16.3304 21.4298C15.8567 22.5609 15.6128 23.7749 15.6128 25.0011C15.6128 26.2274 15.8567 27.4414 16.3304 28.5724C16.8041 29.7035 17.498 30.729 18.3718 31.5893C19.2457 32.4496 20.2819 33.1275 21.4202 33.5834C22.5585 34.0394 23.7762 34.2644 25.0023 34.2453C27.429 34.2074 29.7435 33.2168 31.4462 31.4873C33.1489 29.7578 34.1033 27.4281 34.1033 25.0011C34.1033 22.5741 33.1489 20.2444 31.4462 18.5149C29.7435 16.7854 27.429 15.7949 25.0023 15.757ZM25.0023 18.9993C25.7903 18.9993 26.5706 19.1545 27.2986 19.456C28.0267 19.7576 28.6882 20.1996 29.2454 20.7568C29.8026 21.3141 30.2447 21.9756 30.5462 22.7036C30.8478 23.4317 31.003 24.212 31.003 25C31.003 25.788 30.8478 26.5683 30.5462 27.2964C30.2447 28.0244 29.8026 28.6859 29.2454 29.2432C28.6882 29.8004 28.0267 30.2424 27.2986 30.544C26.5706 30.8455 25.7903 31.0007 25.0023 31.0007C23.4108 31.0007 21.8844 30.3685 20.7591 29.2432C19.6337 28.1178 19.0015 26.5915 19.0015 25C19.0015 23.4085 19.6337 21.8822 20.7591 20.7568C21.8844 19.6315 23.4108 18.9993 25.0023 18.9993Z" fill="white"/>
</svg>
